<?xml version="1.0" encoding="utf-8"?>
<!-- Generator: Adobe Illustrator 16.0.0, SVG Export Plug-In . SVG Version: 6.00 Build 0)  -->
<!DOCTYPE svg PUBLIC "-//W3C//DTD SVG 1.1//EN" "http://www.w3.org/Graphics/SVG/1.1/DTD/svg11.dtd">
<svg version="1.1" id="Layer_1" xmlns="http://www.w3.org/2000/svg" xmlns:xlink="http://www.w3.org/1999/xlink" x="0px" y="0px"
	 width="800px" height="800px" viewBox="0 0 800 800" enable-background="new 0 0 800 800" xml:space="preserve">
<g>
	<path fill="#005E9A" d="M400.001,755.586c-196.064,0-355.135-159.994-355.135-355.128c0-196.065,159.071-356.06,355.135-356.06
		c196.065,0,355.134,159.994,355.134,356.06C755.135,595.592,596.066,755.586,400.001,755.586z"/>
	<path fill="#FFFFFF" d="M400.001,51.797c192.363,0,347.736,156.298,347.736,348.661c0,192.365-155.373,347.738-347.736,347.738
		c-192.365,0-348.663-155.373-348.663-347.738C51.338,208.095,207.636,51.797,400.001,51.797z M400.001,37.926
		c-199.764,0-362.534,162.77-362.534,362.532c0,199.762,162.77,361.616,362.534,361.616c199.762,0,362.532-161.854,362.532-361.616
		C762.533,200.695,599.763,37.926,400.001,37.926z"/>
	<polygon fill-rule="evenodd" clip-rule="evenodd" fill="#FFFFFF" points="709.818,409.708 689.468,394.912 669.124,409.708 
		676.523,385.662 656.173,370.866 682.078,370.866 689.468,346.819 697.791,370.866 722.766,370.866 702.413,385.662 	"/>
	<polygon fill-rule="evenodd" clip-rule="evenodd" fill="#FFFFFF" points="129.024,409.708 108.681,394.912 88.333,409.708 
		95.731,385.662 75.384,370.866 100.356,370.866 108.681,346.819 116.079,370.866 141.973,370.866 121.625,385.662 	"/>
	<path fill-rule="evenodd" clip-rule="evenodd" fill="#005E9A" d="M163.243,400.458c0-131.325,105.431-237.679,236.758-237.679
		c131.325,0,236.753,106.354,236.753,237.679c0,130.4-105.428,236.754-236.753,236.754
		C268.673,637.212,163.243,530.858,163.243,400.458z"/>
	<g>
		<defs>
			<polygon id="SVGID_1_" points="381.505,163.705 372.255,164.63 365.782,165.557 360.231,166.474 353.759,167.4 331.564,172.955 
				323.239,175.724 321.388,176.65 315.842,178.501 313.989,179.428 308.443,181.271 297.346,186.826 294.568,187.751 
				287.169,191.446 286.245,192.372 282.545,194.224 281.624,195.149 277.923,196.994 276.999,197.918 273.298,199.771 
				272.374,200.695 270.526,201.622 269.6,202.549 267.749,203.473 266.822,204.393 264.975,205.317 263.124,207.168 
				261.276,208.095 259.424,209.945 257.576,210.872 255.725,212.716 253.877,213.643 252.027,215.493 250.179,216.418 
				244.628,221.966 242.78,222.893 224.284,241.392 223.358,243.235 216.882,249.715 215.961,251.56 214.108,253.41 
				213.184,255.261 211.336,257.114 210.41,258.958 208.562,260.809 207.636,262.66 206.711,263.586 205.785,265.438 
				203.937,267.281 203.011,269.133 202.086,270.059 200.237,273.754 199.312,274.681 197.461,278.382 196.538,279.309 
				194.688,283.004 193.761,283.93 182.664,306.125 181.742,308.902 180.816,310.753 178.042,319.076 177.118,320.921 
				173.417,332.023 169.719,346.819 168.792,349.597 167.868,354.218 166.941,360.69 166.02,366.236 165.094,372.718 
				164.167,381.958 163.243,400.458 164.167,401.385 164.167,418.95 165.094,418.95 165.094,429.127 166.02,429.127 166.02,435.599 
				166.941,435.599 166.941,441.153 167.868,441.153 167.868,447.626 168.792,447.626 168.792,451.321 169.719,451.321 
				169.719,455.023 170.64,455.023 170.64,458.72 171.566,458.72 171.566,462.422 172.493,462.422 172.493,466.126 173.417,466.126 
				173.417,469.821 174.34,469.821 174.34,472.599 175.265,472.599 175.265,475.367 176.191,475.367 176.191,477.22 177.118,477.22 
				177.118,479.988 178.042,479.988 178.042,482.766 178.965,482.766 178.965,485.543 179.89,485.543 179.89,487.395 
				180.816,487.395 180.816,490.164 181.742,490.164 181.742,492.941 182.664,492.941 182.664,494.786 183.59,494.786 
				183.59,496.637 184.515,496.637 184.515,498.488 185.441,498.488 185.441,500.339 186.362,500.339 186.362,502.191 
				187.289,502.191 187.289,504.043 188.215,504.043 188.215,506.813 189.14,506.813 189.14,508.664 190.063,508.664 
				190.063,510.516 190.987,510.516 190.987,512.366 191.914,512.366 191.914,514.21 192.84,514.21 193.761,515.137 
				193.761,516.987 194.688,516.987 194.688,518.839 195.612,518.839 196.538,519.758 196.538,521.609 197.461,521.609 
				197.461,523.46 198.386,523.46 199.312,524.387 199.312,526.23 200.237,526.23 200.237,528.081 201.163,528.081 202.086,529.008 
				202.086,530.858 203.011,530.858 203.011,532.703 203.937,532.703 205.785,534.554 205.785,536.405 206.711,536.405 
				208.562,538.258 208.562,540.108 209.483,540.108 211.336,541.96 211.336,543.804 212.26,543.804 214.108,545.654 
				214.108,547.508 215.034,547.508 215.961,548.432 215.961,550.285 216.882,550.285 222.433,555.824 222.433,557.675 
				223.358,557.675 231.683,565.998 231.683,567.851 232.604,567.851 233.53,568.775 235.381,569.702 243.702,578.025 
				245.554,578.945 251.104,584.498 252.951,585.424 254.804,587.269 256.651,588.201 257.576,589.119 259.424,590.046 
				261.276,591.896 263.124,592.823 264.975,594.674 266.822,595.592 268.673,597.444 272.374,599.296 273.298,600.22 
				276.999,602.064 277.923,602.997 281.624,604.851 282.545,605.768 286.245,607.619 287.169,608.545 294.568,612.24 
				297.346,613.167 308.443,618.713 313.989,620.563 315.842,621.49 321.388,623.341 323.239,624.268 331.564,627.038 
				353.759,632.591 360.231,633.511 365.782,634.443 372.255,635.361 381.505,636.288 418.492,637.212 418.492,636.288 
				428.668,635.361 435.141,634.443 440.695,633.511 447.168,632.591 469.362,627.038 477.686,624.268 479.529,623.341 
				485.084,621.49 486.936,620.563 492.483,618.713 503.584,613.167 506.354,612.24 513.752,608.545 514.678,607.619 
				518.382,605.768 519.299,604.851 523.001,602.997 523.928,602.064 527.623,600.22 528.556,599.296 532.251,597.444 
				534.095,595.592 535.948,594.674 537.799,592.823 539.649,591.896 541.501,590.046 543.354,589.119 544.271,588.201 
				546.122,587.269 547.974,585.424 549.826,584.498 555.372,578.945 557.216,578.025 565.541,569.702 567.393,568.775 
				568.317,567.851 569.243,565.998 577.566,557.675 578.493,555.824 584.041,550.285 584.966,548.432 585.892,547.508 
				586.81,545.654 588.66,543.804 589.594,541.96 591.438,540.108 592.364,538.258 594.215,536.405 595.133,534.554 
				596.985,532.703 598.837,529.008 599.763,528.081 601.614,524.387 602.539,523.46 604.392,519.758 605.31,518.839 
				607.16,515.137 608.087,514.21 611.781,506.813 612.715,504.043 618.254,492.941 619.188,490.164 620.106,488.313 
				622.883,479.988 623.809,478.145 626.579,469.821 632.132,447.626 633.052,441.153 633.985,435.599 634.902,429.127 
				635.836,418.95 636.754,381.958 635.836,381.958 635.836,372.718 634.902,372.718 634.902,366.236 633.985,366.236 
				633.985,360.69 633.052,360.69 633.052,354.218 632.132,354.218 632.132,349.597 631.208,349.597 631.208,346.819 
				630.281,346.819 630.281,343.117 629.356,343.117 629.356,339.42 628.43,339.42 628.43,335.718 627.513,335.718 627.513,332.023 
				626.579,332.023 626.579,329.246 625.66,329.246 625.66,326.476 624.735,326.476 624.735,323.698 623.809,323.698 
				623.809,320.921 622.883,320.921 622.883,318.152 621.958,318.152 621.958,316.301 621.038,316.301 621.038,313.523 
				620.106,313.523 620.106,310.753 619.188,310.753 619.188,307.976 618.254,307.976 618.254,306.125 617.336,306.125 
				617.336,304.28 616.41,304.28 616.41,302.43 615.485,302.43 615.485,300.577 614.559,300.577 614.559,298.726 613.633,298.726 
				613.633,296.875 612.715,296.875 612.715,295.031 611.781,295.031 611.781,293.18 610.864,293.18 610.864,291.327 
				609.931,291.327 609.931,289.477 609.013,289.477 609.013,287.632 608.087,287.632 608.087,285.781 607.16,285.781 
				607.16,283.93 606.235,283.004 605.31,283.004 605.31,281.159 604.392,281.159 604.392,279.309 603.458,278.382 602.539,278.382 
				602.539,276.531 601.614,276.531 601.614,274.681 600.688,273.754 599.763,273.754 599.763,271.91 598.837,271.91 
				598.837,270.059 597.919,269.133 596.985,269.133 596.985,267.281 595.133,265.438 594.215,265.438 594.215,263.586 
				593.291,262.66 592.364,262.66 592.364,260.809 590.514,258.958 589.594,258.958 589.594,257.114 587.743,255.261 
				586.81,255.261 586.81,253.41 584.966,251.56 584.041,251.56 584.041,249.715 577.566,243.235 576.643,243.235 576.643,241.392 
				558.149,222.893 556.299,221.966 550.744,216.418 548.893,215.493 547.049,213.643 545.197,212.716 543.354,210.872 
				541.501,209.945 539.649,208.095 537.799,207.168 535.948,205.317 534.095,204.393 533.178,203.473 531.326,202.549 
				530.4,201.622 528.556,200.695 527.623,199.771 523.928,197.918 523.001,196.994 519.299,195.149 518.382,194.224 
				514.678,192.372 513.752,191.446 506.354,187.751 503.584,186.826 492.483,181.271 486.936,179.428 485.084,178.501 
				479.529,176.65 477.686,175.724 469.362,172.955 447.168,167.4 440.695,166.474 435.141,165.557 428.668,164.63 418.492,163.705 
							"/>
		</defs>
		<clipPath id="SVGID_2_">
			<use xlink:href="#SVGID_1_"  overflow="visible"/>
		</clipPath>
		<path clip-path="url(#SVGID_2_)" fill="#FFFFFF" d="M397.227,310.753h-0.926H397.227z"/>
		<path clip-path="url(#SVGID_2_)" fill="#FFFFFF" d="M398.148,310.753h-0.921H398.148z"/>
		<path clip-path="url(#SVGID_2_)" fill-rule="evenodd" clip-rule="evenodd" fill="#FFFFFF" d="M152.146,650.157V338.495
			l45.315,14.796v-8.323h24.046v17.573l90.635-37.917h17.57v-1.851v-2.777h-3.699v-2.771h26.82c0,0,0.926-0.925,2.774-1.852
			c0.926-0.926,2.777-1.851,5.551-2.777c5.549-2.77,14.796-6.472,25.893-7.398h0.926l-0.926-0.925
			c-0.921-1.844-0.921-4.621-0.921-7.398c0-5.548,1.848-11.094,5.546-13.871h0.926l-0.926-0.927c0-0.925-0.925-1.842-0.925-3.695
			c0-1.851,0.925-2.777,1.851-4.628v-8.316v-1.852h3.699h1.847h3.7l-0.922,1.852v8.316c1.848,1.851,2.774,2.777,2.774,4.628
			c0,1.854-0.926,2.771-1.852,3.695v0.927c3.699,2.777,6.477,8.323,6.477,13.871c0,2.777-0.927,5.555-1.851,7.398v0.925h0.924
			c11.095,0.927,19.419,4.629,24.973,7.398c2.771,0.927,4.621,1.852,6.473,2.777c0.926,0.927,1.853,1.852,1.853,1.852h27.74v2.771
			h-3.702v2.777v1.851h17.582l97.104,36.992v-16.648h24.038v8.323l45.323-14.796v311.662H152.146z"/>
		<path clip-path="url(#SVGID_2_)" fill="#005E9A" d="M386.129,467.97v6.473c0,0.925-0.926,1.851-1.853,1.851h-2.772
			c-0.927,0-1.853-0.926-1.853-1.851v-6.473h-1.847v-6.473h39.77v6.473h-0.927v6.473c0,0.925-0.925,1.851-2.777,1.851h-1.851
			c-1.852,0-2.769-0.926-2.769-1.851v-6.473H386.129z"/>
		<path clip-path="url(#SVGID_2_)" fill="#005E9A" d="M470.288,467.97v6.473c0,0.925-0.926,1.851-1.853,1.851h-2.769
			c-0.934,0-1.851-0.926-1.851-1.851v-6.473h-1.854v-6.473h39.771v6.473h-0.927v6.473c0,0.925-0.925,1.851-1.851,1.851h-2.778
			c-1.851,0-1.851-0.926-1.851-1.851v-6.473H470.288z"/>
		<path clip-path="url(#SVGID_2_)" fill="#005E9A" d="M537.799,467.97v6.473c0,0.925-0.927,1.851-1.851,1.851h-2.771
			c-0.927,0-1.852-0.926-1.852-1.851v-6.473h-1.853v-6.473h39.77v6.473h-1.851v6.473c0,0.925-0.92,1.851-1.852,1.851h-2.771
			c-0.926,0-1.851-0.926-1.851-1.851v-6.473H537.799z"/>
		<path clip-path="url(#SVGID_2_)" fill="#005E9A" d="M629.356,467.97l-2.777,6.473c0,0.925-0.919,1.851-1.844,1.851h-2.777
			c-0.92,0-1.852-0.926-1.852-1.851v-6.473h-1.853v-6.473h38.852v6.473h-0.933v6.473c0,0.925-0.92,1.851-1.845,1.851h-2.777
			c-0.919,0-1.851-0.926-1.851-1.851v-6.473H629.356z"/>
		<path clip-path="url(#SVGID_2_)" fill="#005E9A" d="M537.799,555.824v5.555c0,0.924-0.927,1.851-1.851,1.851h-2.771
			c-0.927,0-1.852-0.927-1.852-1.851v-5.555h-1.853v-6.473h39.77v6.473h-1.851v5.555c0,0.924-0.92,1.851-1.852,1.851h-2.771
			c-0.926,0-1.851-0.927-1.851-1.851v-5.555H537.799z"/>
		<path clip-path="url(#SVGID_2_)" fill="#005E9A" d="M470.288,555.824v5.555c0,0.924-0.926,1.851-1.853,1.851h-2.769
			c-0.934,0-1.851-0.927-1.851-1.851v-5.555h-1.854v-6.473h39.771v6.473h-0.927v5.555c0,0.924-0.925,1.851-1.851,1.851h-2.778
			c-1.851,0-1.851-0.927-1.851-1.851v-5.555H470.288z"/>
		<path clip-path="url(#SVGID_2_)" fill="#005E9A" d="M386.129,555.824v5.555c0,0.924-0.926,1.851-1.853,1.851h-2.772
			c-0.927,0-1.853-0.927-1.853-1.851v-5.555h-1.847v-6.473h39.77v6.473h-0.927v5.555c0,0.924-0.925,1.851-2.777,1.851h-1.851
			c-1.852,0-2.769-0.927-2.769-1.851v-5.555H386.129z"/>
		<path clip-path="url(#SVGID_2_)" fill="#005E9A" d="M236.304,555.824v5.555c0,0.924-0.923,1.851-2.774,1.851h-1.847
			c-1.853,0-1.853-0.927-1.853-1.851v-5.555h-1.847v-6.473h38.839v6.473h-0.921v5.555c0,0.924-0.926,1.851-1.853,1.851h-2.772
			c-0.926,0-1.853-0.927-1.853-1.851v-5.555H236.304z"/>
		<path clip-path="url(#SVGID_2_)" fill="#005E9A" d="M152.146,467.97v6.473c0,0.925-0.926,1.851-1.849,1.851h-2.776
			c-0.923,0-1.849-0.926-1.849-1.851v-6.473h-1.851v-6.473h39.77v6.473h-0.926v6.473c0,0.925-0.921,1.851-2.774,1.851h-1.848
			c-1.851,0-3.702-0.926-3.702-1.851l-1.848-6.473H152.146z"/>
		<path clip-path="url(#SVGID_2_)" fill="#005E9A" d="M188.215,526.23h-3.7V428.2h3.7V526.23z M184.515,428.2h3.7v98.03h-3.7V428.2z
			"/>
		<path clip-path="url(#SVGID_2_)" fill="#005E9A" d="M300.12,555.824v5.555c0,0.924-0.926,1.851-1.853,1.851h-2.772
			c-0.926,0-1.849-0.927-1.849-1.851v-5.555h-1.851v-6.473h39.77v6.473h-1.853v5.555c0,0.924,0,1.851-1.848,1.851h-2.777
			c-0.921,0-1.848-0.927-1.848-1.851v-5.555H300.12z"/>
		<path clip-path="url(#SVGID_2_)" fill="#005E9A" d="M227.983,575.248h-3.699V428.2h3.699V575.248z M224.284,428.2h3.699v147.048
			h-3.699V428.2z"/>
		<rect x="266.822" y="428.2" clip-path="url(#SVGID_2_)" fill="#005E9A" width="2.777" height="177.567"/>
		<rect x="289.021" y="428.2" clip-path="url(#SVGID_2_)" fill="#005E9A" width="2.774" height="190.513"/>
		<rect x="331.564" y="428.2" clip-path="url(#SVGID_2_)" fill="#005E9A" width="2.772" height="190.513"/>
		<rect x="459.194" y="428.2" clip-path="url(#SVGID_2_)" fill="#005E9A" width="2.769" height="190.513"/>
		<rect x="501.733" y="428.2" clip-path="url(#SVGID_2_)" fill="#005E9A" width="2.769" height="190.513"/>
		<rect x="569.243" y="428.2" clip-path="url(#SVGID_2_)" fill="#005E9A" width="2.771" height="147.048"/>
		<rect x="612.715" y="428.2" clip-path="url(#SVGID_2_)" fill="#005E9A" width="3.695" height="98.964"/>
		<path clip-path="url(#SVGID_2_)" fill="#005E9A" d="M379.652,493.866c0-4.628,10.176-9.249,17.575-9.249
			c7.399,0.926,16.643,4.621,17.57,9.249v47.16h-35.145V493.866z"/>
		<path clip-path="url(#SVGID_2_)" fill="#005E9A" d="M464.733,493.866c0-4.628,10.175-9.249,17.582-9.249
			c7.391,0.926,16.641,4.621,17.566,9.249v47.16h-35.148V493.866z"/>
		<path clip-path="url(#SVGID_2_)" fill="#005E9A" d="M293.646,493.866c0.923-4.628,10.173-9.249,18.496-9.249
			c7.399,0.926,16.645,4.621,16.645,9.249v47.16h-35.141V493.866z"/>
		<path clip-path="url(#SVGID_2_)" fill="#005E9A" d="M229.83,493.866c0-4.628,10.173-9.249,18.496-9.249
			c7.399,0.926,15.723,4.621,16.649,9.249v47.16H229.83V493.866z"/>
		<path clip-path="url(#SVGID_2_)" fill="#005E9A" d="M144.747,493.866c0-4.628,10.174-9.249,18.496-9.249
			c7.397,0.926,15.722,4.621,16.647,9.249v47.16h-35.143V493.866z"/>
		<path clip-path="url(#SVGID_2_)" fill="#005E9A" d="M531.326,493.866c0.925-4.628,10.175-9.249,18.5-9.249
			c7.39,0.926,16.646,4.621,16.646,9.249v47.16h-35.146V493.866z"/>
		<path clip-path="url(#SVGID_2_)" fill="#005E9A" d="M618.254,493.866c0.934-4.628,10.176-9.249,18.5-9.249
			c7.405,0.926,16.648,4.621,16.648,9.249v47.16h-35.148V493.866z"/>
		<path clip-path="url(#SVGID_2_)" fill="#005E9A" d="M464.733,574.323c0-4.621,10.175-9.243,17.582-9.243
			c7.391,0,16.641,3.695,17.566,9.243v47.167h-35.148V574.323z"/>
		<path clip-path="url(#SVGID_2_)" fill="#005E9A" d="M293.646,574.323c0.923-4.621,10.173-9.243,18.496-9.243
			c7.399,0,16.645,3.695,16.645,9.243v47.167h-35.141V574.323z"/>
		<path clip-path="url(#SVGID_2_)" fill="#005E9A" d="M229.83,574.323c0-4.621,10.173-9.243,18.496-9.243
			c7.399,0,15.723,3.695,16.649,9.243v47.167H229.83V574.323z"/>
		<path clip-path="url(#SVGID_2_)" fill="#005E9A" d="M531.326,574.323c0.925-4.621,10.175-9.243,18.5-9.243
			c7.39,0,16.646,3.695,16.646,9.243v47.167h-35.146V574.323z"/>
		<polygon clip-path="url(#SVGID_2_)" fill-rule="evenodd" clip-rule="evenodd" fill="#005E9A" points="355.606,642.768 
			355.606,627.963 320.467,627.963 320.467,632.591 313.989,632.591 313.989,621.49 360.231,621.49 360.231,642.768 		"/>
		<polygon clip-path="url(#SVGID_2_)" fill-rule="evenodd" clip-rule="evenodd" fill="#005E9A" points="436.073,642.768 
			436.073,627.963 470.288,627.963 470.288,632.591 486.936,632.591 486.936,621.49 430.519,621.49 430.519,642.768 		"/>
		<path clip-path="url(#SVGID_2_)" fill="#005E9A" d="M329.711,467.97v6.473c0,0.925,0,1.851-1.848,1.851h-2.777
			c-0.921,0-1.848-0.926-1.848-1.851v-6.473H300.12v6.473c0,0.925-0.926,1.851-1.853,1.851h-2.772c-0.926,0-1.849-0.926-1.849-1.851
			v-6.473h-1.851v-6.473h39.77v6.473H329.711z M236.304,467.97v6.473c0,0.925-0.923,1.851-2.774,1.851h-1.847
			c-1.853,0-1.853-0.926-1.853-1.851v-6.473h-1.847v-6.473h38.839v6.473h-0.921v6.473c0,0.925-0.926,1.851-1.853,1.851h-2.772
			c-0.926,0-1.853-0.926-1.853-1.851v-6.473H236.304z"/>
		<path clip-path="url(#SVGID_2_)" fill-rule="evenodd" clip-rule="evenodd" fill="#005E9A" d="M386.129,344.042
			c0-11.095,4.622-20.344,11.098-20.344c6.472,0,12.024,9.249,12.024,20.344c0,11.101-5.552,20.351-12.024,20.351
			C390.751,364.393,386.129,355.143,386.129,344.042z"/>
		
			<rect x="186.362" y="437.45" clip-path="url(#SVGID_2_)" fill-rule="evenodd" clip-rule="evenodd" fill="#005E9A" width="39.77" height="5.548"/>
		
			<rect x="268.673" y="437.45" clip-path="url(#SVGID_2_)" fill-rule="evenodd" clip-rule="evenodd" fill="#005E9A" width="21.27" height="5.548"/>
		
			<rect x="332.485" y="437.45" clip-path="url(#SVGID_2_)" fill-rule="evenodd" clip-rule="evenodd" fill="#005E9A" width="42.542" height="5.548"/>
		
			<rect x="418.492" y="437.45" clip-path="url(#SVGID_2_)" fill-rule="evenodd" clip-rule="evenodd" fill="#005E9A" width="42.547" height="5.548"/>
		<rect x="503.584" y="437.45" clip-path="url(#SVGID_2_)" fill="#005E9A" width="24.039" height="5.548"/>
		
			<rect x="570.17" y="437.45" clip-path="url(#SVGID_2_)" fill-rule="evenodd" clip-rule="evenodd" fill="#005E9A" width="44.389" height="5.548"/>
		<rect x="358.384" y="439.301" clip-path="url(#SVGID_2_)" fill="#005E9A" width="2.774" height="132.252"/>
		<rect x="430.519" y="439.301" clip-path="url(#SVGID_2_)" fill="#005E9A" width="2.771" height="132.252"/>
		<rect x="525.771" y="428.2" clip-path="url(#SVGID_2_)" fill="#005E9A" width="3.702" height="190.513"/>
		<rect x="374.106" y="428.2" clip-path="url(#SVGID_2_)" fill="#005E9A" width="2.774" height="14.798"/>
		<rect x="417.574" y="428.2" clip-path="url(#SVGID_2_)" fill="#005E9A" width="2.769" height="14.798"/>
		<path clip-path="url(#SVGID_2_)" fill-rule="evenodd" clip-rule="evenodd" fill="#005E9A" d="M427.75,621.49
			c2.769-0.927,5.539,4.628,5.539,4.628l3.702-4.628l-4.621-4.629v-36.065h7.398c0,0,3.695,2.777,7.399,1.851
			c2.769,0,3.701-2.769,3.701-2.769v-9.258c0,0-12.026,0.933-13.878,0c-1.851,0-22.194-6.473-39.764-6.473
			c-17.575,0-29.597,3.703-36.069,5.555c-5.551,1.851-12.95,1.851-12.95,1.851h-8.32v7.393c0,0,2.774,3.701,5.548,3.701
			c3.698,0.927,5.549-1.851,5.549-1.851h9.247v36.065l-6.473,4.629l3.699,2.777c0,0,2.774-3.704,7.398-2.777
			c3.699,0,2.774,3.695,2.774,3.695v16.648h6.476v-14.796h41.617v15.729h7.397v-17.582C423.12,625.186,424.047,621.49,427.75,621.49
			z"/>
		<path clip-path="url(#SVGID_2_)" fill-rule="evenodd" clip-rule="evenodd" fill="#FFFFFF" d="M363.009,583.573
			c0,0,18.496-9.25,32.367-5.548v40.688h-32.367V583.573z M365.782,584.498v26.824h24.969v-31.444
			C380.578,578.025,365.782,584.498,365.782,584.498z"/>
		<path clip-path="url(#SVGID_2_)" fill-rule="evenodd" clip-rule="evenodd" fill="#FFFFFF" d="M428.668,583.573v35.14h-29.594
			v-40.688C412.952,574.323,428.668,583.573,428.668,583.573z M425.897,584.498c0,0-12.945-6.473-23.124-4.62v31.444h23.124V584.498
			z"/>
		<path clip-path="url(#SVGID_2_)" fill="#005E9A" d="M352.833,327.393h-3.699v16.649h3.699V327.393z M346.36,327.393h-5.549v16.649
			h5.549V327.393z M337.11,327.393h-2.774v16.649h2.774V327.393z M456.408,327.393v16.649h3.704v-16.649H456.408z M448.085,327.393
			v16.649h5.555v-16.649H448.085z M441.612,327.393v16.649h3.704v-16.649H441.612z M472.14,331.097
			c-0.934,1.851-0.934,3.704-1.852,4.621c-0.926,0.925-3.703,1.852-4.621,3.702c-0.934,0.927,0,2.777,0,2.777h-3.704v24.039h-2.769
			v-20.344h-17.582v20.344h-2.77v-38.844h-2.77c0,0-1.851-1.842-3.703-2.769c-0.925-1.851-3.702-2.777-6.473-4.628
			c-6.473-2.771-15.729-6.473-27.75-6.473h-0.921h-0.926c-12.024,0-21.274,3.702-27.746,6.473c-2.772,1.851-5.546,2.777-7.397,4.628
			c-0.926,0.927-2.774,2.769-2.774,2.769h-2.777v38.844h-2.774v-20.344h-18.496v20.344h-2.772v-24.039h-2.777
			c0,0,0.925-1.851,0-2.777c-0.923-1.851-3.7-2.777-5.548-3.702c0-0.917-0.924-2.771-0.924-4.621h-9.25l-90.631,37.917h-7.399v-18.5
			h-12.948v11.103h-5.548l-44.393-13.871v-9.25l45.315,14.796v-8.323h24.046v17.573l90.635-37.917h17.57v-1.851v-2.777h-3.699
			v-2.771h26.82c0,0,0.926-0.925,2.774-1.852c0.926-0.926,2.777-1.851,5.551-2.777c5.549-2.77,14.796-6.472,25.893-7.398h0.926
			l-0.926-0.925c-0.921-1.844-0.921-4.621-0.921-7.398c0-5.548,1.848-11.094,5.546-13.871h0.926l-0.926-0.927
			c0-0.925-0.925-1.842-0.925-3.695c0-1.851,0.925-2.777,1.851-4.628v-8.316v-1.852h3.699h1.847h3.7l-0.922,1.852v8.316
			c1.848,1.851,2.774,2.777,2.774,4.628c0,1.854-0.926,2.771-1.852,3.695v0.927c3.699,2.777,6.477,8.323,6.477,13.871
			c0,2.777-0.927,5.555-1.851,7.398v0.925h0.924c11.095,0.927,19.419,4.629,24.973,7.398c2.771,0.927,4.621,1.852,6.473,2.777
			c0.926,0.927,1.853,1.852,1.853,1.852h27.74v2.771h-3.702v2.777v1.851h17.582l97.104,37.917v-17.573h24.038v8.323l45.323-14.796
			v9.25l-44.39,13.871h-6.473v-11.103h-12.027l-0.926,18.5h-6.473l-98.03-37.917H472.14z"/>
		<path clip-path="url(#SVGID_2_)" fill="#FFFFFF" d="M218.733,365.318v-18.499h-19.421v12.02h-2.774l-44.393-14.797v-6.473
			l44.393,13.871v-7.398h24.969v16.648l90.635-36.992h16.645v-0.925v-1.853h-3.7v-4.62h27.746c0,0,11.097-9.25,34.218-12.027
			c-0.921-1.844-1.848-4.621-1.848-7.398c0-6.473,2.774-11.094,6.473-13.871c-0.925-1.852-1.848-2.769-1.848-4.622
			c0-1.851,0.923-3.701,2.774-4.628v-8.316l-0.926-2.777h4.625h1.847h4.625l-0.926,2.777v8.316c0.926,0.927,1.852,2.777,1.852,4.628
			c0,1.854,0,2.771-0.926,4.622c3.7,2.777,6.478,7.398,6.478,13.871c0,2.777-0.927,5.555-1.854,7.398
			c23.121,2.777,34.215,12.027,34.215,12.027h27.75v4.62h-3.695v1.853v0.925h16.648l97.104,36.992v-16.648h24.972v7.398
			l44.39-13.871v6.473l-44.39,14.797h-2.777v-12.02h-19.426v18.499h-3.695l-97.11-36.999h-10.177h-2.771
			c-1.851-2.769-4.619-3.695-4.619-3.695v-0.926h-1.854h-22.194h-2.777c0,0-13.871-12.945-38.843-12.945h-0.921h-0.926
			c-24.972,0-39.768,12.945-39.768,12.945h-1.848h-22.2h-1.848v0.926c0,0-3.698,0.927-4.625,3.695h-3.698h-9.25l-90.631,36.999
			H218.733z"/>
		<path clip-path="url(#SVGID_2_)" fill="#FFFFFF" d="M442.546,215.493h19.417c0.927,0,0.927,0.925,0.927,0.925v0.927
			c-4.628,7.398-14.805,31.444-15.722,38.843c0,0.927,0,3.695,0,5.548c0,0.925-4.622,0.925-5.556,0.925
			c-0.917,0-0.917-0.925-0.917-0.925c0-0.927,0-1.853,0-1.853c2.769-8.323,9.241-24.046,18.499-39.768h-14.804
			c-1.845,0-4.622,0-5.548,0.924c-1.852,0.927-2.77,2.777-2.77,4.629c0,0.926,0,0.926,0,0.926c-0.933,0-0.933,0-0.933-0.926
			c0-1.852,0.933-9.25,0.933-9.25c0-0.925,0-0.925,0.918-0.925C436.991,215.493,438.843,215.493,442.546,215.493z M350.06,232.142
			v11.094c0,5.554,0,11.102,0,13.879c0.925,1.844,0.925,2.769,2.772,2.769c0.926,0,3.7,0.926,3.7,0.926c0.925,0,0.925,0,0.925,0
			l-0.925,0.927c-4.625,0-8.325-0.927-9.247-0.927c0,0-5.551,0.927-9.25,0.927l-0.926-0.927h0.926c0.924,0,3.698-0.926,4.625-0.926
			c1.847,0,2.774-0.925,2.774-2.769c0-2.777,0-8.325,0-13.879v-11.094c0-2.777,0-5.548,0-9.249c0-0.927,0-1.854-0.927-1.854
			c-1.847,0-5.548,2.777-7.398,3.704c0,0,0,0-0.925,0v-0.927c0,0,0,0,0.925,0l11.097-8.323c0.926,0,0.926-0.926,1.853-0.926
			c0,0,0,0.926,0,1.851C350.06,216.418,350.06,222.893,350.06,232.142z M378.728,214.567c8.323,0,13.875,7.398,13.875,16.648
			c0,16.648-13.875,27.742-21.273,31.444c0,0,0,0-0.921,0c0,0,0,0,0-0.925c0,0,0,0,0-0.927c7.397-3.694,16.644-13.871,16.644-27.742
			c0-10.174-4.625-15.722-10.171-15.722c-4.625,0-8.325,4.621-8.325,9.249c0,10.168,7.399,12.021,9.25,12.021
			c2.773,0,4.621-0.926,4.621-0.926c0.926-0.927,0.926-0.927,0.926-0.927c0.925,0,0.925,0,0.925,0.927c0,0,0,0-0.925,0
			c-1.847,1.851-4.625,2.777-6.472,2.777c-9.25,0-12.95-6.473-12.95-11.102C363.93,221.039,370.407,214.567,378.728,214.567z
			 M413.87,214.567c9.25,0,13.88,7.398,13.88,16.648c0,16.648-12.953,27.742-20.353,31.444c-0.924,0-0.924,0-0.924,0
			s-0.927,0-0.927-0.925c0,0,0.927,0,0.927-0.927c7.396-3.694,16.646-13.871,16.646-27.742c0-10.174-4.628-15.722-10.168-15.722
			c-5.555,0-8.326,4.621-8.326,9.249c0,10.168,7.394,12.021,9.244,12.021c2.777,0,3.704-0.926,4.622-0.926
			c0-0.927,0.933-0.927,0.933-0.927s0,0,0,0.927l0,0c-1.851,1.851-4.628,2.777-7.405,2.777c-8.32,0-12.019-6.473-12.019-11.102
			C400.001,221.039,405.547,214.567,413.87,214.567z"/>
		<polygon clip-path="url(#SVGID_2_)" fill-rule="evenodd" clip-rule="evenodd" fill="#005E9A" points="650.632,456.867 
			620.106,456.867 620.106,422.654 614.559,430.051 570.17,430.051 565.541,422.654 565.541,456.867 533.178,456.867 
			533.178,422.654 527.623,430.051 502.65,430.051 498.029,422.654 498.029,456.867 465.667,456.867 465.667,422.654 
			461.039,430.051 418.492,430.051 412.952,422.654 412.952,456.867 380.578,456.867 380.578,422.654 375.027,430.051 
			332.485,430.051 326.939,422.654 326.939,456.867 295.495,456.867 295.495,422.654 289.943,430.051 268.673,430.051 
			263.124,422.654 263.124,456.867 231.683,456.867 231.683,422.654 226.132,430.051 186.362,430.051 179.89,422.654 
			179.89,456.867 147.521,456.867 147.521,376.412 649.7,376.412 649.7,373.635 147.521,373.635 147.521,369.94 650.632,369.94 		
			"/>
		<path clip-path="url(#SVGID_2_)" fill-rule="evenodd" clip-rule="evenodd" fill="#FFFFFF" d="M487.854,404.154
			c-0.919-0.919-0.919-0.919-0.919-0.919c0-0.934,0-1.851,0.919-2.777c0,0,0-0.925,0.934-0.925c0.918,0,1.844,0,2.769,0.925
			c1.852,0,4.621,0.927,6.473,2.777c0.927,0,1.853,0.919,2.777,1.844c0.927,0,0.927,0.927,1.844,0.927v0.926
			c0,0.925,0,9.25,0,10.168c0,0-0.917,0.934-1.844,0.934c-0.925,0-0.925,0-0.925-1.852v-7.407h-0.926
			c-0.927-0.918-0.927-1.843-1.845-1.843C495.261,405.079,491.557,404.154,487.854,404.154z"/>
		<path clip-path="url(#SVGID_2_)" fill-rule="evenodd" clip-rule="evenodd" fill="#FFFFFF" d="M227.058,417.1
			c0-0.918,0-9.243,0-10.168c0,0,0-0.926,0.925-0.926c0,0,0-0.927,0.923-0.927c0.924-0.925,1.851-1.844,2.777-1.844
			c2.772-1.851,4.621-2.777,7.397-2.777c0.923-0.925,1.849-0.925,1.849-0.925c0.925,0,1.851,0.925,1.851,0.925
			c0,0.927,0,1.844,0,2.777c0,0,0,0,0,0.919c-4.625,0-7.399,0.925-9.25,2.777c-0.926,0-1.847,0.925-2.773,0.925v8.325
			c0,1.852-0.927,1.852-1.851,1.852C227.983,418.033,227.058,417.1,227.058,417.1z"/>
		<path clip-path="url(#SVGID_2_)" fill-rule="evenodd" clip-rule="evenodd" fill="#FFFFFF" d="M252.951,404.154
			c0-0.919,0-0.919,0-0.919c0-0.934,0-1.851,0-2.777c0,0,0.926-0.925,1.853-0.925c0,0,0.921,0,1.847,0.925
			c1.851,0,4.625,0.927,7.397,2.777c0.926,0,1.853,0.919,2.773,1.844l0.927,0.927l0.924,0.926c0,0.925,0,9.25,0,10.168
			c0,0-0.924,0.934-1.851,0.934c-0.921,0-1.847,0-1.847-1.852v-7.407c-0.926-0.918-1.851-1.843-2.774-1.843
			C260.35,405.079,257.576,404.154,252.951,404.154z"/>
		
			<rect x="245.554" y="393.061" clip-path="url(#SVGID_2_)" fill-rule="evenodd" clip-rule="evenodd" fill="#FFFFFF" width="3.699" height="8.324"/>
		<path clip-path="url(#SVGID_2_)" fill-rule="evenodd" clip-rule="evenodd" fill="#FFFFFF" d="M290.87,417.1
			c0-0.918,0-9.243,0-10.168c0,0,0-0.926,0.924-0.926c0,0,0-0.927,0.926-0.927c0.925-0.925,1.848-1.844,2.774-1.844
			c2.772-1.851,4.625-2.777,7.397-2.777c0.927-0.925,1.853-0.925,1.853-0.925c0.921,0,1.848,0.925,1.848,0.925
			c0,0.927,0,1.844,0,2.777c0,0,0,0,0,0.919c-4.625,0-7.399,0.925-9.247,2.777c-0.926,0-1.851,0.925-2.777,0.925v8.325
			c0,1.852-0.923,1.852-1.848,1.852C291.794,418.033,290.87,417.1,290.87,417.1z"/>
		<path clip-path="url(#SVGID_2_)" fill-rule="evenodd" clip-rule="evenodd" fill="#FFFFFF" d="M316.767,404.154
			c0-0.919,0-0.919,0-0.919c0-0.934,0-1.851,0-2.777c0,0,0.923-0.925,1.848-0.925c0,0,0.926,0,1.853,0.925
			c1.848,0,4.62,0.927,7.397,2.777c0.923,0,1.848,0.919,2.774,1.844l0.926,0.927l0.921,0.926c0,0.925,0,9.25,0,10.168
			c0,0-0.921,0.934-1.848,0.934s-1.851,0-1.851-1.852v-7.407c-0.923-0.918-1.847-1.843-2.774-1.843
			C324.166,405.079,321.388,404.154,316.767,404.154z"/>
		
			<rect x="309.364" y="393.061" clip-path="url(#SVGID_2_)" fill-rule="evenodd" clip-rule="evenodd" fill="#FFFFFF" width="3.7" height="8.324"/>
		<path clip-path="url(#SVGID_2_)" fill-rule="evenodd" clip-rule="evenodd" fill="#FFFFFF" d="M402.773,404.154
			c0-0.919,0-0.919,0-0.919c0-0.934,0-1.851,0-2.777c0,0,0-0.925,0.926-0.925c0.927,0,1.848,0,2.774,0.925
			c1.851,0,4.628,0.927,6.479,2.777c0.918,0,2.771,0.919,2.771,1.844c0.925,0,0.925,0.927,1.852,0.927v0.926
			c0.918,0.925,0.918,9.25,0,10.168c0,0,0,0.934-1.852,0.934c-0.926,0-0.926,0-0.926-1.852v-7.407
			c-0.927-0.918-1.845-1.843-2.777-1.843C410.168,405.079,407.397,404.154,402.773,404.154z"/>
		<path clip-path="url(#SVGID_2_)" fill-rule="evenodd" clip-rule="evenodd" fill="#FFFFFF" d="M376.88,417.1
			c-0.926-0.918-0.926-9.243,0-10.168v-0.926c0.925,0,0.925-0.927,1.848-0.927c0-0.925,1.851-1.844,2.777-1.844
			c1.847-1.851,4.625-2.777,6.472-2.777c0.925-0.925,1.851-0.925,2.774-0.925c0.925,0,0.925,0.925,0.925,0.925
			c0,0.927,0.926,1.844,0,2.777c0,0,0,0,0,0.919c-4.625,0-7.399,0.925-9.25,2.777c-0.921,0-1.848,0.925-1.848,0.925l-0.926,8.325
			c0,1.852,0,1.852-0.924,1.852C376.88,418.033,376.88,417.1,376.88,417.1z"/>
		
			<rect x="395.376" y="393.061" clip-path="url(#SVGID_2_)" fill-rule="evenodd" clip-rule="evenodd" fill="#FFFFFF" width="2.772" height="8.324"/>
		<path clip-path="url(#SVGID_2_)" fill-rule="evenodd" clip-rule="evenodd" fill="#FFFFFF" d="M528.556,417.1
			c0-0.918,0-9.243,0-10.168l0.918-0.926l0.927-0.927c0.926-0.925,1.851-1.844,2.777-1.844c2.771-1.851,5.546-2.777,7.39-2.777
			c0.934-0.925,1.853-0.925,2.786-0.925l0.918,0.925c0,0.927,0,1.844,0,2.777c0,0,0,0,0,0.919c-4.622,0-7.399,0.925-9.243,2.777
			c-0.934,0-1.851,0.925-1.851,0.925l-0.927,8.325c0,1.852-0.925,1.852-1.851,1.852C529.474,418.033,528.556,417.1,528.556,417.1z"
			/>
		
			<rect x="547.049" y="393.061" clip-path="url(#SVGID_2_)" fill-rule="evenodd" clip-rule="evenodd" fill="#FFFFFF" width="3.695" height="8.324"/>
		<path clip-path="url(#SVGID_2_)" fill-rule="evenodd" clip-rule="evenodd" fill="#FFFFFF" d="M461.963,417.1
			c-0.924-0.918-0.924-9.243,0-10.168v-0.926l0.927-0.927c0.927-0.925,2.777-1.844,3.695-1.844c1.851-1.851,4.621-2.777,6.473-2.777
			c0.933-0.925,1.851-0.925,2.777-0.925c0.926,0,0.926,0.925,0.926,0.925c0,0.927,0,1.844,0,2.777c0,0,0,0,0,0.919
			c-4.621,0-7.398,0.925-9.25,2.777c-0.926,0-1.844,0.925-1.844,0.925l-0.934,8.325c0,1.852-0.917,1.852-1.844,1.852
			S461.963,417.1,461.963,417.1z"/>
		
			<rect x="479.529" y="393.061" clip-path="url(#SVGID_2_)" fill-rule="evenodd" clip-rule="evenodd" fill="#FFFFFF" width="3.704" height="8.324"/>
		<path clip-path="url(#SVGID_2_)" fill-rule="evenodd" clip-rule="evenodd" fill="#FFFFFF" d="M616.41,417.1
			c0-0.918,0-9.243,0-10.168v-0.926c0.926,0,0.926-0.927,1.844-0.927c0.934-0.925,1.853-1.844,2.784-1.844
			c1.845-1.851,4.622-2.777,6.475-2.777c0.917-0.925,1.844-0.925,2.769-0.925c0.927,0,0.927,0.925,0.927,0.925
			c0.924,0.927,0.924,1.844,0.924,2.777c0,0,0,0-0.924,0.919c-4.629,0-7.399,0.925-9.25,2.777c-0.92,0-0.92,0.925-1.852,0.925
			l-0.919,8.325c0,1.852,0,1.852-0.934,1.852C617.336,418.033,616.41,417.1,616.41,417.1z"/>
	</g>
	<g>
		<defs>
			<rect id="SVGID_3_" x="634.902" y="393.061" width="1.852" height="9.241"/>
		</defs>
		<clipPath id="SVGID_4_">
			<use xlink:href="#SVGID_3_"  overflow="visible"/>
		</clipPath>
		
			<rect x="634.902" y="393.061" clip-path="url(#SVGID_4_)" fill-rule="evenodd" clip-rule="evenodd" fill="#FFFFFF" width="2.777" height="8.324"/>
	</g>
	<g>
		<defs>
			<polygon id="SVGID_5_" points="381.505,163.705 372.255,164.63 365.782,165.557 360.231,166.474 353.759,167.4 331.564,172.955 
				323.239,175.724 321.388,176.65 315.842,178.501 313.989,179.428 308.443,181.271 297.346,186.826 294.568,187.751 
				287.169,191.446 286.245,192.372 282.545,194.224 281.624,195.149 277.923,196.994 276.999,197.918 273.298,199.771 
				272.374,200.695 270.526,201.622 269.6,202.549 267.749,203.473 266.822,204.393 264.975,205.317 263.124,207.168 
				261.276,208.095 259.424,209.945 257.576,210.872 255.725,212.716 253.877,213.643 252.027,215.493 250.179,216.418 
				244.628,221.966 242.78,222.893 224.284,241.392 223.358,243.235 216.882,249.715 215.961,251.56 214.108,253.41 
				213.184,255.261 211.336,257.114 210.41,258.958 208.562,260.809 207.636,262.66 206.711,263.586 205.785,265.438 
				203.937,267.281 203.011,269.133 202.086,270.059 200.237,273.754 199.312,274.681 197.461,278.382 196.538,279.309 
				194.688,283.004 193.761,283.93 182.664,306.125 181.742,308.902 180.816,310.753 178.042,319.076 177.118,320.921 
				173.417,332.023 169.719,346.819 168.792,349.597 167.868,354.218 166.941,360.69 166.02,366.236 165.094,372.718 
				164.167,381.958 163.243,400.458 164.167,401.385 164.167,418.95 165.094,418.95 165.094,429.127 166.02,429.127 166.02,435.599 
				166.941,435.599 166.941,441.153 167.868,441.153 167.868,447.626 168.792,447.626 168.792,451.321 169.719,451.321 
				169.719,455.023 170.64,455.023 170.64,458.72 171.566,458.72 171.566,462.422 172.493,462.422 172.493,466.126 173.417,466.126 
				173.417,469.821 174.34,469.821 174.34,472.599 175.265,472.599 175.265,475.367 176.191,475.367 176.191,477.22 177.118,477.22 
				177.118,479.988 178.042,479.988 178.042,482.766 178.965,482.766 178.965,485.543 179.89,485.543 179.89,487.395 
				180.816,487.395 180.816,490.164 181.742,490.164 181.742,492.941 182.664,492.941 182.664,494.786 183.59,494.786 
				183.59,496.637 184.515,496.637 184.515,498.488 185.441,498.488 185.441,500.339 186.362,500.339 186.362,502.191 
				187.289,502.191 187.289,504.043 188.215,504.043 188.215,506.813 189.14,506.813 189.14,508.664 190.063,508.664 
				190.063,510.516 190.987,510.516 190.987,512.366 191.914,512.366 191.914,514.21 192.84,514.21 193.761,515.137 
				193.761,516.987 194.688,516.987 194.688,518.839 195.612,518.839 196.538,519.758 196.538,521.609 197.461,521.609 
				197.461,523.46 198.386,523.46 199.312,524.387 199.312,526.23 200.237,526.23 200.237,528.081 201.163,528.081 202.086,529.008 
				202.086,530.858 203.011,530.858 203.011,532.703 203.937,532.703 205.785,534.554 205.785,536.405 206.711,536.405 
				208.562,538.258 208.562,540.108 209.483,540.108 211.336,541.96 211.336,543.804 212.26,543.804 214.108,545.654 
				214.108,547.508 215.034,547.508 215.961,548.432 215.961,550.285 216.882,550.285 222.433,555.824 222.433,557.675 
				223.358,557.675 231.683,565.998 231.683,567.851 232.604,567.851 233.53,568.775 235.381,569.702 243.702,578.025 
				245.554,578.945 251.104,584.498 252.951,585.424 254.804,587.269 256.651,588.201 257.576,589.119 259.424,590.046 
				261.276,591.896 263.124,592.823 264.975,594.674 266.822,595.592 268.673,597.444 272.374,599.296 273.298,600.22 
				276.999,602.064 277.923,602.997 281.624,604.851 282.545,605.768 286.245,607.619 287.169,608.545 294.568,612.24 
				297.346,613.167 308.443,618.713 313.989,620.563 315.842,621.49 321.388,623.341 323.239,624.268 331.564,627.038 
				353.759,632.591 360.231,633.511 365.782,634.443 372.255,635.361 381.505,636.288 418.492,637.212 418.492,636.288 
				428.668,635.361 435.141,634.443 440.695,633.511 447.168,632.591 469.362,627.038 477.686,624.268 479.529,623.341 
				485.084,621.49 486.936,620.563 492.483,618.713 503.584,613.167 506.354,612.24 513.752,608.545 514.678,607.619 
				518.382,605.768 519.299,604.851 523.001,602.997 523.928,602.064 527.623,600.22 528.556,599.296 532.251,597.444 
				534.095,595.592 535.948,594.674 537.799,592.823 539.649,591.896 541.501,590.046 543.354,589.119 544.271,588.201 
				546.122,587.269 547.974,585.424 549.826,584.498 555.372,578.945 557.216,578.025 565.541,569.702 567.393,568.775 
				568.317,567.851 569.243,565.998 577.566,557.675 578.493,555.824 584.041,550.285 584.966,548.432 585.892,547.508 
				586.81,545.654 588.66,543.804 589.594,541.96 591.438,540.108 592.364,538.258 594.215,536.405 595.133,534.554 
				596.985,532.703 598.837,529.008 599.763,528.081 601.614,524.387 602.539,523.46 604.392,519.758 605.31,518.839 
				607.16,515.137 608.087,514.21 611.781,506.813 612.715,504.043 618.254,492.941 619.188,490.164 620.106,488.313 
				622.883,479.988 623.809,478.145 626.579,469.821 632.132,447.626 633.052,441.153 633.985,435.599 634.902,429.127 
				635.836,418.95 636.754,381.958 635.836,381.958 635.836,372.718 634.902,372.718 634.902,366.236 633.985,366.236 
				633.985,360.69 633.052,360.69 633.052,354.218 632.132,354.218 632.132,349.597 631.208,349.597 631.208,346.819 
				630.281,346.819 630.281,343.117 629.356,343.117 629.356,339.42 628.43,339.42 628.43,335.718 627.513,335.718 627.513,332.023 
				626.579,332.023 626.579,329.246 625.66,329.246 625.66,326.476 624.735,326.476 624.735,323.698 623.809,323.698 
				623.809,320.921 622.883,320.921 622.883,318.152 621.958,318.152 621.958,316.301 621.038,316.301 621.038,313.523 
				620.106,313.523 620.106,310.753 619.188,310.753 619.188,307.976 618.254,307.976 618.254,306.125 617.336,306.125 
				617.336,304.28 616.41,304.28 616.41,302.43 615.485,302.43 615.485,300.577 614.559,300.577 614.559,298.726 613.633,298.726 
				613.633,296.875 612.715,296.875 612.715,295.031 611.781,295.031 611.781,293.18 610.864,293.18 610.864,291.327 
				609.931,291.327 609.931,289.477 609.013,289.477 609.013,287.632 608.087,287.632 608.087,285.781 607.16,285.781 
				607.16,283.93 606.235,283.004 605.31,283.004 605.31,281.159 604.392,281.159 604.392,279.309 603.458,278.382 602.539,278.382 
				602.539,276.531 601.614,276.531 601.614,274.681 600.688,273.754 599.763,273.754 599.763,271.91 598.837,271.91 
				598.837,270.059 597.919,269.133 596.985,269.133 596.985,267.281 595.133,265.438 594.215,265.438 594.215,263.586 
				593.291,262.66 592.364,262.66 592.364,260.809 590.514,258.958 589.594,258.958 589.594,257.114 587.743,255.261 
				586.81,255.261 586.81,253.41 584.966,251.56 584.041,251.56 584.041,249.715 577.566,243.235 576.643,243.235 576.643,241.392 
				558.149,222.893 556.299,221.966 550.744,216.418 548.893,215.493 547.049,213.643 545.197,212.716 543.354,210.872 
				541.501,209.945 539.649,208.095 537.799,207.168 535.948,205.317 534.095,204.393 533.178,203.473 531.326,202.549 
				530.4,201.622 528.556,200.695 527.623,199.771 523.928,197.918 523.001,196.994 519.299,195.149 518.382,194.224 
				514.678,192.372 513.752,191.446 506.354,187.751 503.584,186.826 492.483,181.271 486.936,179.428 485.084,178.501 
				479.529,176.65 477.686,175.724 469.362,172.955 447.168,167.4 440.695,166.474 435.141,165.557 428.668,164.63 418.492,163.705 
							"/>
		</defs>
		<clipPath id="SVGID_6_">
			<use xlink:href="#SVGID_5_"  overflow="visible"/>
		</clipPath>
		<path clip-path="url(#SVGID_6_)" fill-rule="evenodd" clip-rule="evenodd" fill="#FFFFFF" d="M553.521,404.154
			c0-0.919,0-0.919,0-0.919c0-0.934,0-1.851,0-2.777c0,0,0.926-0.925,1.851-0.925c0,0,0.927,0,1.844,0.925
			c1.852,0,4.629,0.927,7.406,2.777c0.919,0,1.851,0.919,2.771,1.844l0.925,0.927c0.926,0,0.926,0.926,0.926,0.926
			c0,0.925,0,9.25,0,10.168c0,0-0.926,0.934-1.851,0.934c-0.92,0-1.852,0-1.852-1.852v-7.407c-0.919-0.918-1.853-1.843-2.771-1.843
			C560.92,405.079,558.149,404.154,553.521,404.154z"/>
		<path clip-path="url(#SVGID_6_)" fill-rule="evenodd" clip-rule="evenodd" fill="#FFFFFF" d="M169.719,404.154
			c-0.926-0.919-0.926-0.919-0.926-0.919c0-0.934,0-1.851,0-2.777c0,0,0.926-0.925,1.847-0.925c0,0,0.927,0,1.853,0.925
			c2.772,0,4.625,0.927,7.397,2.777c0.926,0,1.853,0.919,2.774,1.844c0.926,0,0.926,0,0.926,0.927c0.925,0,0.925,0,0.925,0.926
			c0,0.925,0,9.25,0,10.168c0,0-0.925,0.934-1.851,0.934c-0.921,0-1.848-0.934-1.848-1.852v-7.407
			c-0.926-0.918-0.926-1.843-2.774-2.769C176.191,405.079,173.417,404.154,169.719,404.154z"/>
		
			<rect x="161.396" y="393.061" clip-path="url(#SVGID_6_)" fill-rule="evenodd" clip-rule="evenodd" fill="#FFFFFF" width="3.698" height="8.324"/>
	</g>
	<path fill-rule="evenodd" clip-rule="evenodd" fill="#FFFFFF" d="M641.375,492.016c-0.918-0.927-2.769-2.777-1.844-4.621
		c0.926-1.852,1.844-3.702,4.628-2.777c1.845,0.926,2.771,2.777,1.845,4.621C645.079,492.016,643.227,492.016,641.375,492.016z
		 M679.292,496.637c6.481,1.852,11.109,3.702,13.88,4.622c0.925,0,2.769,0,3.702-1.845l0.917-1.851c0.927-0.927,0.927,0,0.927,0.925
		c-0.927,2.771-2.777,6.472-2.777,7.398c0,0-0.918,3.695-1.844,5.546v0.927h-0.925c0,0,0,0,0-0.927c0,0,0-0.917,0-1.851
		c0-0.918-0.927-1.845-2.771-2.769c-1.851-0.927-6.479-1.854-12.952-3.704l-10.169-3.695c-9.257-3.694-11.107-3.694-12.952-4.628
		c-1.853,0-3.696,0-3.696,0.934c-0.932,0.917-0.932,1.844-0.932,1.844c-1.844,0.925-1.844,0-1.844-0.927
		c0.925-1.851,2.775-5.548,2.775-5.548c0-0.925,0.919-4.628,1.844-6.472v-0.925h0.927v0.925c0,0.926,0,0.926,0,1.844
		c0,0.934,0.926,1.853,2.771,2.777c1.851,0.926,3.702,0.926,12.951,4.628L679.292,496.637z M197.461,255.261
		c2.776-2.775,1.851-6.472-0.923-11.101l-25.898-54.565c-1.847-2.769-1.847-3.695-1.847-4.621c0.926,0,1.847,0,4.625,0.926
		c3.701,1.852,40.691,17.573,54.566,23.121c8.321,3.695,11.097,2.77,12.946,1.852c0.925-0.927,1.851-1.852,2.772-2.777
		c0,0,0,0,0.926,0c0,0,0,0,0.926,0v0.926c0,0.925-0.926,0.925-0.926,1.852c-0.926,0.918-5.548,5.546-10.173,10.167l-0.925,0.927
		h-0.926c0,0,0,0-0.921,0c0,0.927,0,0.927,0,0c-0.926,0-0.926-0.927,0-0.927c0,0,0-0.924-1.853-1.844l-22.194-9.25l-13.875,13.871
		c-0.921,0.927-0.921,0.927,0,0.927l7.402,15.723c0.923,1.851,2.774,3.694,3.699,4.621c0.923,1.851,2.774,0.925,3.7,0l0.921-0.927
		c0-0.925,0.927-0.925,0.927,0c0.926,0,0.926,0,0.926,0.927c0,0-0.926,0-0.926,0.925c-1.848,0.926-4.625,3.703-5.548,4.621
		c0,0.927-3.699,4.628-6.476,7.398c-0.925,0.927-0.925,0.927-0.925,0.927c-0.923,0-0.923,0.925-0.923,0l-1.851,1.851
		c-0.927,2.777-1.848,4.629-2.774,5.547c-0.927,2.777-2.774,3.703-4.625,4.63c-0.926,0.925-1.848,0.925-2.774,1.851
		c-0.925,0-1.851,0.918-2.772,0.918c-4.625,1.851-31.446,9.25-38.843,11.101l6.473,3.704c8.323,4.621,14.796,8.316,18.496,9.242
		c1.851,0.925,3.699,1.852,5.549-0.926c0.923-0.918,1.848-1.844,1.848-2.771c0-0.925,0.926-0.925,0.926,0
		c0.927,0,0.927,0.927,0.927,1.853c-2.777,3.695-5.551,8.316-5.551,9.241c0,0-2.774,5.555-3.699,7.398
		c-0.926,0.927-0.926,0.927-0.926,0.927c0,0.925-0.921,0.925-0.921,0.925c-0.926-0.925-0.926-0.925-0.926-1.852
		c0.926-0.917,0.926-1.844,1.848-2.77c0-0.925-0.921-2.776-3.699-3.702c-1.847-1.852-3.7-2.771-6.472-4.622
		c-3.7-1.851-6.474-3.702-11.099-5.546l-13.87-7.398c-12.949-7.406-14.801-8.323-17.574-9.25c-2.774-1.851-4.625-1.851-6.473,0.927
		c0,0-0.925,1.842-1.851,2.769c0,0,0,0.926-0.925,0c0,0-0.922,0-0.922-0.927l0.922-0.925c1.851-3.694,4.625-8.316,4.625-9.242
		c0.925,0,2.776-5.555,4.625-7.399c0-0.925,0-0.925,0-0.925c0.926-0.926,0.926-0.926,0.926,0c0.925,0,0.925,0.925,0.925,0.925
		c-0.925,0.927-0.925,0.927-0.925,1.845c-0.926,2.777,0,3.703,2.773,5.555c2.774,1.844,4.625,2.771,17.574,9.242l3.698,2.777
		c-0.924-4.621-7.397-24.972-8.323-29.593c-0.926-1.852-1.851-3.704-1.851-4.622c-0.926-1.851-0.926-2.777-1.848-2.777
		c-0.926,0-1.853,0-1.853,0l-0.925,0.927c0,0,0,0-0.923,0c0-0.927,0-1.853,0-1.853c0.923-1.852,2.774-3.695,3.7-6.473
		c0,0,2.772-5.546,3.699-7.397c0-0.926,0.926-0.926,0.926-0.926h0.921c0.926,0,0.926,0.926,0,0.926
		c-0.921,1.852-0.921,3.695-0.921,5.547c0,1.851,0,3.703,0,5.547c0.921,1.852,0.921,3.702,1.848,6.479
		c0.925,2.771,7.397,24.039,8.323,27.743c4.625-1.854,29.594-9.25,35.145-10.177c4.625-1.844,7.397-2.771,10.171-3.695
		c1.851-0.926,2.774-1.851,4.625-3.703c2.774-1.852,3.698-3.695,3.698-4.622c0.926,0,0.926,0,0.926-0.924h0.923
		C197.461,254.337,198.386,255.261,197.461,255.261z M191.914,221.039l12.023-12.944c0,0,0,0,0-0.927l-24.047-11.092
		c-1.848,0-1.848,0-0.925,1.842l12.022,23.121C190.987,221.039,190.987,221.039,191.914,221.039z M244.628,160.002
		c-6.473-12.945-7.399-14.796-9.247-17.573c-1.851-2.771-2.777-3.695-5.551-2.771c-0.924,0-1.847,0.926-2.772,0.926
		c-0.926,0-0.926,0-1.853,0c0,0,0-0.926,0.926-0.926c0,0,0-0.925,0.926-0.925c3.699-1.853,8.323-3.704,9.246-4.622
		c0.925,0,6.476-2.777,11.101-5.555c1.848-0.926,4.622-1.844,7.399-3.694c2.772-0.927,5.546-1.853,9.245-2.777
		c6.478-1.853,13.875-2.777,21.273,0c6.472,1.851,13.871,7.398,18.496,17.573c5.546,10.176,4.625,20.344,2.774,27.742
		c-1.848,5.555-6.473,14.796-21.27,22.194c-6.476,2.777-17.573,7.399-18.5,7.399c0,0-5.546,2.777-8.32,4.628h-0.926h-0.925
		c0-0.927,0-0.927,0.925-1.851c0.926,0,0.926-0.927,1.848-0.927c1.853-0.927,0.926-2.769,0-5.546
		c-0.921-3.704-4.62-10.177-8.32-18.5L244.628,160.002z M251.104,155.38l4.622,10.169c4.625,9.25,8.324,16.647,9.25,18.5
		c0.926,1.851,2.774,4.62,3.698,5.546c1.853,0.927,5.551,0.927,15.722-3.695c7.399-3.703,13.872-10.176,15.724-17.572
		c2.772-6.475,0.925-14.798-2.774-23.121c-5.551-10.177-12.95-14.798-18.5-16.649c-11.097-4.621-21.27-0.926-31.441,3.704
		c-1.851,0.925-4.625,2.769-4.625,3.695c-0.926,0-0.926,0.925-0.926,1.851C243.702,140.584,247.405,148.907,251.104,155.38z
		 M349.134,138.733c1.851,8.323,2.774,15.722,3.699,19.417c0.926,1.852,1.853,3.702,4.625,3.702c0.926,0,3.7,0,3.7,0
		c0.924,0,1.851,0,1.851,0c0,0.927-0.927,1.853-1.851,1.853c-4.625,0.925-11.098,1.844-11.098,1.844
		c-0.926,0-6.474,0.925-9.25,1.852h-0.923c0,0-0.927,0-0.927-0.927c0,0,0-0.925,0.927-0.925c0.923,0,1.847,0,2.774-0.919
		c1.847,0,1.847-1.851,1.847-4.628c-0.923-4.622-1.847-11.095-3.698-20.344l-2.774-15.723c-2.774-13.87-3.7-16.647-4.625-19.425
		c-0.926-2.77-1.848-4.622-3.7-4.622c-0.925,0-1.848,0-2.772,0.927c0,0-0.927,0-0.927-0.927c0-0.925,0-0.925,0-0.925
		c0.927,0,0.927,0,1.851-0.926c2.774,0,8.322-0.926,8.322-0.926c0.925,0,6.476-1.844,9.25-1.844c0.924,0,0.924,0,0.924,0
		c0.926,0,0.926,0,0.926,0c0,0.918,0,0.918-0.926,1.844c0,0-0.924,0-1.851,0c-1.847,0.926-2.774,2.776-1.847,5.554
		c0,2.771,0,5.548,2.774,19.419L349.134,138.733z M329.711,86.019c-0.925-1.852,0-4.629,3.7-5.547
		c2.774-0.926,5.549,0.918,5.549,3.695c0.927,2.777-0.924,5.547-3.698,6.473C331.564,90.64,329.711,88.788,329.711,86.019z
		 M391.676,117.463c0-14.797,0-16.647,0-20.351c0-2.771,0-3.695-3.699-4.621c0,0-1.848,0-2.774,0l-0.926-0.926
		c0-0.926,0-0.926,0.926-0.926c0,0,0-0.926,0.926,0c4.622,0,10.171,0,10.171,0c0.926,0,8.325,0,11.097,0
		c5.555,0.926,12.027,0.926,16.649,4.629c2.77,1.844,6.472,6.473,6.472,12.945c0,7.398-3.702,13.871-12.026,21.27
		c7.405,10.175,12.953,18.5,18.499,24.046c4.621,5.548,8.325,6.473,10.177,7.398c1.851,0,3.701,0,3.701,0c0.92,0,1.845,0,0.92,0.925
		v0.927c-0.92,0-0.92,0-1.853,0h-6.473c-5.546,0-7.391-0.927-10.175-2.777c-1.844-0.925-3.696-2.77-5.539-4.622
		c-1.853-2.777-3.703-5.546-6.48-9.25c-3.695-4.619-8.317-11.101-9.25-13.869c-0.918,0-0.918,0-0.918,0l-12.027-0.927v2.777
		c-0.926,8.317-0.926,15.723,0,19.418c0,2.777,0,4.621,2.773,5.548c0.926,0,2.778,0,3.699,0c0.927,0,0.927,0.925,0.927,0.925
		c0,0.926,0,0.926-0.927,0.926c-5.546,0-11.097,0-12.02,0c0,0-5.55,0-8.324,0c-0.926,0-0.926-0.926-0.926-0.926
		c-0.925,0-0.925,0-0.925-0.925c0,0,0-0.927,0.925-0.927c0.926,0,1.853,0,2.774,0c1.851,0,1.851-1.844,2.777-4.621
		c0.923-3.695,0.923-11.101,0.923-20.344L391.676,117.463z M400.001,95.269l-0.927,30.519v0.926
		c1.851,0.918,5.552,1.844,10.177,1.844c1.851,0,4.619,0,6.472-1.844c3.702-1.851,6.473-6.48,6.473-13.878
		c0-11.094-5.548-18.493-15.722-18.493c-2.774,0-4.626,0-5.548,0C400.001,94.342,400.001,95.269,400.001,95.269z M558.149,183.122
		c-3.702,7.399-7.405,13.872-9.257,17.573c-0.919,2.777-0.919,4.622,0.934,5.548c0.918,0.925,2.769,1.852,3.695,2.777v0.925
		c0,0.927-0.927,0.927-1.845,0c-4.628-2.777-9.257-5.553-10.176-5.553c0,0-5.553-2.771-7.406-4.621c-0.917,0-0.917,0-0.917,0
		c-0.927-0.927-0.927-0.927,0-1.854c0,0,0,0,0.917,0c0.934,0.927,1.854,0.927,2.777,0.927c0.927,0.927,2.777-0.927,4.629-2.769
		c1.853-2.777,5.548-9.25,9.243-17.575l5.555-8.323l-35.148-19.426l-4.621,9.25c-4.622,7.398-7.397,13.871-9.25,17.574
		c-0.925,1.852-1.845,3.695,0.926,5.546c0.927,0.927,2.769,1.852,2.769,2.777c0.934,0,0.934,0,0.934,0.927
		c-0.934,0.925-0.934,0-1.851,0c-4.622-2.777-10.175-5.555-10.175-5.555s-5.555-2.771-8.325-4.621c0,0,0,0-0.925-0.927
		c0,0,0,0,0-0.925c0,0,0.925,0,1.852,0c0,0.925,1.844,0.925,1.844,0.925c1.851,0.927,2.784-0.925,4.629-2.769
		c2.777-3.704,6.479-9.25,10.176-17.575l8.316-13.869c6.479-12.954,8.323-14.798,9.257-17.575c0.918-2.777,0.918-4.628-0.934-6.473
		c-0.918,0-1.844-0.925-2.771-1.851c0,0-0.925,0,0-0.927c0,0,0,0,0.927,0c0,0,0,0,0.926,0c3.702,1.853,8.324,5.547,9.241,5.547
		c0,0,5.555,2.777,7.406,3.703c0.919,0.927,0.919,0.927,0.919,0.927c0.934,0,0.934,0.925,0,0.925c0,0.926-0.919,0.926-0.919,0
		c-0.934,0-0.934,0-1.852,0c-2.777-0.925-3.701,0-5.555,2.77c-1.844,1.852-2.769,4.629-9.241,16.649l-0.926,1.851l34.222,19.417
		l0.918-1.844c7.405-12.952,8.325-14.796,9.25-17.573c1.853-2.777,1.853-3.704-0.925-6.473l-1.852-0.926
		c-0.919-0.925-0.919-0.925-0.919-1.852h0.919h0.932c3.697,1.852,9.243,5.546,9.243,5.546s5.555,2.777,8.325,3.704
		c0,0.927,0.925,0.927,0.925,0.927c0,0.924,0,0.924,0,0.924c-0.925,0.927-0.925,0.927-1.852,0.927c0-0.927-0.926-0.927-1.844-0.927
		c-1.851-0.924-3.704,0-5.555,2.771c-0.918,1.852-2.769,4.629-9.243,16.649L558.149,183.122z M633.052,196.994
		c2.784-1.845,3.702-1.845,4.628-0.918c0,0.918,0,0.918-0.926,3.695c-1.852,3.701-20.344,39.768-27.741,53.639
		c-3.703,7.398-2.777,10.176-1.853,12.027c0.927,1.844,1.853,2.771,1.853,3.695h0.918c0,0.926,0,0.926-0.918,0.926c0,0,0,0-0.926,0
		c0,0-0.927,0-0.927-0.926c-0.925-0.925-5.546-5.547-9.241-11.102l-0.934-0.917h-0.919c0-0.927,0-0.927,0-0.927v-0.927
		c0.919,0,0.919,0,1.853,0c0,0,0.918,0,1.844-0.924l11.102-21.271c0-0.925,0-0.925-0.934-0.925l-12.945-14.797c0,0,0,0-0.919,0
		l-15.729,6.472c-1.844,0.927-3.694,2.777-5.539,3.695c-0.933,0.927,0,2.777,0.918,3.704v0.926c0.927,0,0.927,0.925,0.927,0.925
		c-0.927,0.927-0.927,0.927-1.845,0l0,0c-1.851-1.851-4.628-4.628-4.628-5.555c-0.927-0.918-4.629-4.619-7.399-7.396
		c-0.926-0.92-0.926-0.92-0.926-1.845v-0.926c0.926,0,0.926,0,1.844,0c0,0.926,0.934,1.851,1.853,1.851
		c2.776,2.771,6.473,1.844,11.102,0L633.052,196.994z M600.688,215.493l11.094,12.945c0.934,0.926,0.934,0.926,0.934,0
		l12.945-23.121c0.919-0.925,0-1.845-0.925-0.925L600.688,215.493z M613.633,281.152c0-1.844,0.926-1.844,2.777-2.771
		c3.696-1.851,7.398-3.701,9.25-4.628c0,0,0,0,0.919,0h0.934c0,0.927,0,1.851-0.934,1.851c0,0-0.919,0-0.919,0.927
		c-0.925,0-1.852,0.927-1.852,0.927c-5.555,4.619-4.621,11.101-1.851,15.722c3.702,8.323,11.094,9.25,16.648,6.473
		c5.553-3.695,7.397-7.398,9.25-17.575l0.925-4.619c2.77-12.947,6.472-17.575,12.02-20.344c9.25-4.629,18.491-1.854,24.046,9.241
		c1.853,2.777,2.771,5.555,3.704,7.398c0,1.851,0.917,2.777,0.917,3.704c0.934,0,0.934,0.924,0,0.924
		c-0.917,0.927-3.694,1.854-9.242,4.622l-0.934,0.926c-0.918,0-0.918,0-0.918-0.926c-0.925,0-0.925,0,0-0.927c0,0,0,0,0-0.925
		c0.918,0,2.771-1.844,3.704-2.771c0.918-0.924,2.769-4.628-0.934-12.026c-2.771-5.547-8.325-8.324-14.798-4.62
		c-3.694,1.851-5.546,5.546-8.323,16.646v3.695c-2.771,12.954-6.473,18.5-12.944,22.196c-3.704,1.852-10.177,3.702-17.566,0
		c-4.63-2.771-7.406-6.473-10.177-11.094C615.485,289.477,613.633,285.781,613.633,281.152z M155.844,495.72
		c0.926,0,2.777,0,3.698,1.844c0.926,1.851,0,3.695-1.848,3.695c-1.851,0.933-2.774,0-3.698-1.845
		C153.07,497.563,154.921,496.637,155.844,495.72z M152.146,483.692c0.925,0,2.775,0,3.699,1.851c0,1.852,0,3.695-1.848,3.695
		c-1.851,0.926-3.7,0-3.7-1.844C149.372,485.543,150.296,484.617,152.146,483.692z M124.399,481.84
		c9.25-2.77,11.101-3.702,12.948-4.62c1.851-0.927,1.851-0.927,1.851-3.704c0,0,0-0.917,0-1.851v-0.918h0.923
		c0,0.918,0,0.918,0,0.918c0.925,2.777,1.851,6.473,2.777,7.405c0,0,0.921,3.695,1.848,5.547c0,0.926,0,0.926,0,0.926
		c0,0.918,0,0.918-0.926,0.918c0-0.918,0-0.918-0.921-0.918c0-0.926,0-0.926,0-0.926c-0.926-1.852-1.853-1.852-3.7-0.925
		c-1.851,0-3.698,0.925-12.948,3.702l-9.25,2.77c-8.32,2.777-11.098,6.473-12.945,9.25c-1.852,3.695-0.927,6.473,0,10.168
		c0.922,3.703,3.698,6.48,7.397,7.405c3.7,1.852,9.247,0.918,15.723-0.925l7.397-2.777c9.246-2.77,11.097-3.703,12.946-3.703
		c1.851-0.918,2.776-1.845,1.851-3.695c0-0.927,0-1.844,0-1.844c0-0.934,0-0.934,0-0.934c0.925,0,0.925,0,0.925,0s0,0,0.923,0.934
		c0,2.771,0.926,5.539,1.851,6.473c0,0,0.926,2.77,1.851,4.621v0.926l-0.924,0.925c-0.926-0.925-0.926-0.925-0.926-0.925
		c0-0.926,0-0.926,0-0.926c-0.925-1.852-1.851-1.852-4.625-0.927c-1.848,0-3.699,0.927-12.945,3.695l-6.476,1.853
		c-6.473,2.777-13.871,3.702-19.421,0.925c-5.547-3.695-7.399-8.323-9.247-11.101c0-2.769-1.852-8.323,0.922-14.796
		c1.851-3.697,4.625-7.392,13.875-10.169L124.399,481.84z M141.046,574.323c-3.699,2.777-4.625,4.622-3.699,5.555
		c0,1.843,0.927,2.769,0.927,2.769c0,0.927,0.924,0.927,0,0.927c0,0.925-0.927,0.925-0.927,0c0,0,0,0-0.926,0
		c-1.847-2.777-2.772-5.548-3.698-5.548c0-0.925-1.848-2.777-3.699-4.621c0-0.932,0-0.932,0-0.932c0-0.92,0-0.92,0-0.92
		c0.925,0,0.925,0,0.925,0c0.926,0.92,0.926,0.92,1.853,1.852c0.921,0.919,2.772,0,7.397-2.784l29.594-21.269
		c0.926-0.92,1.847-1.853,1.847-1.853c0.927,0,0.927,0,1.853,0v0.933v0.92l-0.926,1.851c0,0.927-2.774,14.796-5.546,28.676
		c-1.853,8.323-3.7,17.566-4.625,21.269l24.967-18.5c3.7-2.769,4.625-3.701,3.7-5.546c0-0.926-0.923-1.853-1.848-2.777
		c0,0,0-0.919,0.925-0.919l0,0c0.923,0,0.923,0.919,0.923,0.919c1.851,1.852,3.698,4.622,3.698,5.555c0.927,0,1.851,1.843,3.7,3.695
		c0,0.925,0,0.925,0,0.925c0,0.926,0,0.926,0,0.926h-0.923c-0.926-0.926-0.926-0.926-0.926-0.926
		c-1.851-1.852-2.772-0.925-5.549,0.926l-30.52,22.195c-1.848,0.926-2.772,1.851-2.772,1.851c-0.926,0-0.926,0-1.85,0
		c0-0.925,0-1.851,0.923-6.473c0-0.933,1.851-13.878,3.698-23.119c1.853-10.176,4.625-19.426,5.551-24.054L141.046,574.323z
		 M209.483,636.288c-3.698,4.628-6.472,8.323-8.32,11.101c-0.926,0.918-0.926,2.769,0,3.695c0,0.926,1.848,1.851,1.848,1.851
		c0,0.927,0,0.927,0,0.927c0,0.926-0.925,0.926-0.925,0c-2.774-1.852-6.474-4.622-6.474-5.555c0,0-3.698-1.845-4.625-3.695h-0.924
		c0-0.927,0-0.927,0-0.927c0.924-0.917,0.924-0.917,1.851,0l0.926,0.927c0.921,0,1.848,0,3.698-1.844
		c1.848-1.852,4.625-5.556,9.247-10.177l6.476-8.323c6.473-7.406,7.399-9.25,9.247-11.101c0.926-0.927,0.926-2.777,0-3.697
		l-0.926-0.925c0,0-0.921-0.926,0-0.926c0,0,0-0.925,0.926,0l0,0c1.851,0.926,4.625,3.703,5.551,4.621c0,0,2.772,1.852,4.625,3.704
		c0,0,0,0,0.921,0.917c0,0,0,0-0.921,0c0,0.934,0,0.934-0.926,0c0,0,0,0-0.927-0.917c-1.847,0-2.772,0-3.698,1.851
		c-1.848,0.918-2.774,2.769-9.25,10.168L209.483,636.288z M228.906,603.917c0.924-1.853,3.698-2.771,5.549-0.92
		c0.926,0.92,1.849,3.697,0,4.622c-0.925,1.851-3.698,1.851-4.625,0.926C227.983,606.694,227.983,604.842,228.906,603.917z
		 M255.725,679.751c8.324-6.473,24.972-21.269,28.67-24.039c0-0.925,0.927-1.851,0.927-1.851c0-0.927,0.923-0.927,0-1.852
		c0,0-0.927-0.926-1.851-0.926c0,0,0,0,0-0.927c-0.926,0-0.926,0,0,0c0-0.918,0-0.918,0-0.918c0.924,0,0.924,0.918,1.851,0.918
		c1.847,0.927,4.621,2.777,4.621,2.777c0.927,0,2.777,1.853,4.625,1.853c0.926,0.925,0.926,0.925,0.926,0.925v0.919h-0.926
		c-0.923,0-1.848-0.919-2.774-0.919c-0.924,0-2.774,0.919-5.549,3.695c-1.85,0.926-8.322,6.48-14.798,12.021
		c-7.398,6.479-13.871,11.101-16.643,12.953c-0.927,0.925-1.853,1.842-2.777,2.775c-0.923,0-0.923,0-0.923,0h-0.924
		c0,0-0.926,0-0.926-0.934c0-0.917,0.926-1.842,0.926-3.694l4.625-41.612c0-3.704,0-4.628-1.853-6.473
		c-0.924,0-1.848-0.933-1.848-0.933c-0.924,0-0.924-0.92-0.924-0.92c0.924,0,0.924,0,0.924,0c0.923,0,0.923,0,1.848,0
		c2.774,1.853,5.551,3.697,6.473,3.697c0,0,2.777,1.851,4.625,2.775c0.926,0,0.926,0.919,1.853,0.919c0,0,0,0,0,0.934h-0.926
		c-0.926,0-1.851-0.934-2.774-0.934c0,0-0.925,0-0.925,0.934c0,0,0,2.769-0.926,4.621L255.725,679.751z M318.614,682.528
		c2.774-9.25,3.7-11.101,3.7-12.945c0.924-2.777,0-3.695-1.848-4.628c0,0-0.926,0-1.853,0c0-1.852,0-1.852,0.926-1.852
		c2.774,0.934,6.472,1.852,7.399,1.852c0,0,12.021,3.702,13.871,3.702c0.924,0.926,1.851,0.926,2.775,0.926h0.923v0.927v0.918
		c-0.923,0-0.923,0.933-0.923,1.851c-0.924,0-0.924,2.777-1.851,3.704c0,0,0,0,0,0.924h-0.924c-0.923,0,0-0.924,0-1.851
		c0,0,0-0.925,0-1.851c0-0.927-0.923-1.845-3.7-2.777c-0.925-0.918-6.473-1.845-8.324-2.771l-4.621,17.565
		c0.921,0,8.32,2.786,9.246,2.786c1.851,0,2.774,0,3.699,0v-0.933c0.926,0,0.926,0,0.926,0c0,0.933,0,1.851,0,1.851
		c0,0.927-0.926,1.851-0.926,2.777c-0.925,0.925-0.925,2.777-0.925,3.695h-0.923v0.926c0,0,0,0-0.926,0c0,0,0,0,0-0.926
		c0,0,0-0.918,0-1.852c0-0.919,0-1.844-1.851-2.771c-1.848-0.924-7.399-1.851-9.247-2.769l-1.851,5.539
		c0,1.852-1.848,9.257-2.774,10.175c-0.925,4.621,0,5.555,5.551,7.406c1.847,0,4.621,0.919,6.472,0.919
		c1.848-0.919,2.774-1.851,3.699-3.704c0-0.917,0-0.917,0-0.917c0.926,0,0.926,0,0.926,0h0.923l-0.923,0.917
		c0,0.934-0.926,4.629-1.851,5.555c-0.926,0.927-0.926,1.852-1.848,1.852h-0.926c0,0-0.926,0-1.851-0.925
		c-9.246-1.853-12.945-3.696-14.797-3.696c0,0-3.699-0.932-5.546-1.852c-0.927,0-0.927,0-0.927,0
		c-0.924-0.934-0.924-0.934-0.924-0.934c0.924-0.917,0.924-0.917,1.851-0.917c0,0.917,0.921,0.917,0.921,0.917
		c1.853,0,1.853-0.917,2.777-2.769c0.923-2.771,2.774-7.398,3.7-13.871L318.614,682.528z M381.505,693.629
		c0-10.175,0-12.025,0-13.878c0-1.845,0-2.769-1.853-2.769c-0.924-0.927-1.847-0.927-2.772-0.927c-0.926-0.925,0-0.925,0.925-0.925
		c2.773,0,6.472,0,7.398,0c0,0,5.548,0,7.399,0c3.699,0,8.323,0.925,11.097,2.775c1.848,1.845,4.625,4.622,4.625,9.25
		c0,4.621-1.851,9.243-7.399,14.798c4.622,6.473,9.243,12.019,12.027,15.715c3.695,3.702,6.473,4.629,8.317,4.629
		c0.926,0,1.851,0,1.851,0c0.927,0.925,0.927,0.925,0.927,0.925v0.926c-0.927,0-0.927,0-0.927,0h-0.925h-4.621
		c-3.704,0-4.622-0.926-6.473-1.851c-1.851,0-2.777-1.852-3.704-2.777c-1.851-1.852-2.771-3.695-4.624-6.473
		c-2.772-3.704-5.546-7.398-7.397-9.243l0,0l-7.399-0.933l-0.926,1.851c0,6.475,0,11.103,0,13.88c0,1.844,0.926,2.769,2.777,2.769
		c0,0.927,1.848,0.927,2.774,0.927c0.925,0.925,0,0.925-0.926,0.925c-3.699,0-7.399,0-7.399,0c-0.925,0-4.625,0-6.472,0h-0.925
		c0,0,0,0,0-0.925c0.925,0,1.848-0.927,2.772-0.927c0.926,0,0.926-0.925,0.926-2.769c0.927-2.777,0.927-7.405,0.927-13.88V693.629z
		 M387.051,678.833v20.344v0.926c0.926,0,4.625,0.925,7.399,0.925c0.926,0,2.777,0,4.625-0.925
		c1.851-1.853,3.699-4.621,3.699-10.176c0-7.398-3.699-12.021-11.098-12.944c-1.848,0-2.774,0.924-3.699,0.924
		C387.051,677.906,387.051,677.906,387.051,678.833z M455.491,717.669c-0.925,0-0.925-0.919-1.852-2.771
		c-0.926-2.77-0.926-5.555-0.926-6.472c0,0,0,0,0-0.927c0,0,0,0,0.926,0c0,0,0,0,0.927,0.927c0,0,0,0.917,0,1.851
		c1.842,4.621,6.473,4.621,10.167,4.621c6.473-1.851,8.324-6.472,7.406-10.176c-0.934-3.695-3.704-6.473-9.25-9.241l-3.695-1.853
		c-7.405-3.702-10.176-7.406-11.109-12.025c-0.917-6.473,2.784-12.946,11.109-13.871c1.845-0.927,3.695-0.927,5.539-0.927
		c0.934,0,1.852,0,1.852,0c0.926,0,1.851,0,1.851,0c0,0.927,0,2.777,0.927,7.399v0.926c0,0,0,0,0,0.925
		c-0.927,0-0.927,0-0.927-0.925h-0.925c0-0.926-0.926-2.771-0.926-2.771c-0.918-0.933-2.769-2.777-8.323-1.851
		c-3.695,0.918-6.473,3.695-5.548,8.323c0,3.695,2.777,5.548,9.249,8.323l1.854,0.92c9.241,4.628,11.092,8.323,12.944,12.951
		c0,2.777,0,8.316-3.703,12.021c-1.852,2.777-5.547,3.702-8.324,4.621C461.039,718.603,458.262,718.603,455.491,717.669z
		 M520.232,678.833c1.844,5.548,3.695,10.176,5.539,12.021c0.934,1.851,1.852,2.775,2.784,2.775
		c0.918-0.925,2.771-0.925,2.771-0.925c0.925-0.927,0.925-0.927,0.925,0c0.927,0,0,0.925,0,0.925
		c-3.695,1.853-7.397,2.771-7.397,2.771c-0.926,0.926-3.703,2.777-5.555,2.777c-0.917,0.926-0.917,0.926-0.917,0.926
		c-0.934,0-0.934-0.926-0.934-0.926c0.934-0.927,0.934-0.927,0.934-0.927l0.917-0.925c0.934-0.926,0.934-1.844,0-3.696
		c0-2.775-2.77-6.473-4.621-12.025l-4.621-10.176c-4.622-9.243-4.622-11.095-5.555-12.945c-0.918-1.852-1.852-2.771-3.695-1.852
		c0,0-0.925,0-1.851,0h-0.927v-0.919c0.927,0,0.927,0,0.927,0c1.851-0.925,5.546-2.777,6.479-2.777c0,0,3.697-1.851,5.539-2.777
		c0,0,0,0,0.934,0l0,0c0,0.927,0,0.927-0.934,0.927c0,0.926,0,0.926-0.917,0.926c-0.925,0.925-0.925,1.852,0,3.702
		c0,1.851,0.917,3.695,5.548,12.945L520.232,678.833z M498.029,647.389c0-1.852,0-3.704,1.853-4.621
		c1.852-0.934,4.62-0.934,4.62,0.917c0.933,1.853,0.933,4.622-0.918,5.555C500.807,650.157,498.956,648.307,498.029,647.389z
		 M572.947,647.389c3.695,4.621,6.473,9.242,8.323,11.094c1.844,0.925,2.771,1.851,3.695,0.925c0.926,0,1.844-0.925,2.777-0.925
		c0-0.92,0.917-0.92,0.917,0c0,0,0,0.925-0.917,0.925c-2.777,2.777-5.555,4.63-6.473,4.63c0,0-2.777,2.769-4.628,3.695l-0.927,0.925
		c0,0,0,0-0.918-0.925c0,0,0,0,0.918-0.927l0.927-0.918c0.924-0.933,0-1.851,0-3.703c-1.845-1.852-4.629-6.473-8.325-11.101
		l-15.723-21.271l-7.397,5.548c-2.777,1.851-3.696,2.777-3.696,4.621c0,0.934,0,1.852,0,1.852c0.919,0.934,0.919,0.934,0,1.851
		c0,0-0.934,0-0.934-0.917c0,0-0.918-1.852-1.844-2.785l-0.925-2.771c0-0.924,0-0.924,0-0.924c0-0.927,0-0.927,0-0.927l0.925-0.918
		c0.926,0,0.926,0,1.844,0c1.853-0.933,3.704-2.777,3.704-2.777l19.417-13.871c1.853-1.851,2.784-2.777,3.704-2.777l0.925-0.926
		c0.926-0.925,0.926-0.925,0.926-0.925c1.852,1.851,3.704,5.546,4.622,6.479v0.917c0,0.927-0.918,0.927-0.918,0c0,0,0,0-0.934,0
		c-0.919-1.851-2.771-2.769-8.325,0.927l-6.473,4.628L572.947,647.389z M606.235,602.997c-7.398-6.472-9.25-7.405-10.169-9.257
		c-1.852-0.917-2.775-0.917-4.629,0c0,0-0.924,0.934-1.844,1.852c0,0,0,0-0.934,0c0-0.918,0-0.918,0-0.918s0-0.934,0.934-0.934
		c1.844-1.844,4.621-4.621,4.621-5.539c0,0,8.324-9.256,9.243-10.176c0.934-0.925,1.852-1.851,1.852-2.777c0,0,0,0,0.926-0.925l0,0
		c0.925,0.925,0.925,0.925,0.925,0.925c0.927,0.927,0.927,0.927,1.853,1.853l0.918,1.845c0.934,0,1.851,0.933,1.851,0.933
		c0,0.918,0,0.918,0,1.843h-0.917c-0.934-0.925-1.852-0.925-1.852-1.843c-0.926,0-1.853,0-4.621,1.843
		c-0.934,0.926-5.555,6.48-6.473,6.48l13.862,12.019c0.934,0,5.555-6.479,6.473-7.396c0.934-0.927,1.853-1.853,1.853-2.777v-0.927
		c0-0.918,0-0.918,0.932,0l0.92,0.927c0,0,0.925,0.925,0.925,1.851c0.926,0.927,2.777,2.777,2.777,2.777l0.919,0.918
		c0,0,0,0,0,0.934c0,0-0.919,0-0.919-0.934c-0.925,0-0.925,0-1.852-0.918c-0.926,0-1.851,0-3.702,0.918
		c-0.919,0.934-5.548,5.555-6.474,6.473l4.621,4.63c1.853,0.925,7.406,5.546,8.325,6.473c2.777,2.777,3.702,2.777,8.323-1.845
		c0.934-0.933,2.777-2.777,2.777-4.628c0.927-1.853,0.927-2.777-0.926-4.63c0-0.918,0-0.918-0.918-0.918c0,0,0-0.927,0.918-0.927
		l0,0h0.926c0,0.927,3.695,3.697,3.695,5.548c0.934,0,0.934,0.927,0.934,1.852c0,0,0,0-0.934,0.926c0,0,0,0-0.918,0.925
		c-6.472,7.392-9.249,10.177-10.176,11.094c-0.925,0.927-2.769,3.704-4.621,4.622c0,0.933,0,0.933,0,0.933c-0.925,0-0.925,0-0.925,0
		c-0.927,0-0.927-0.933,0-0.933c0-0.918,0.925-0.918,0.925-1.845c0-0.925,0-1.851-1.852-3.694c-0.926-1.852-4.621-4.629-9.25-9.257
		L606.235,602.997z M666.347,569.702c-0.917,0.918-0.917,0.918-2.769,0c-2.777-1.852-4.621-2.777-5.555-3.704
		c0,0-0.918,0-0.918-0.918l0,0c0-0.933,0.918-0.933,0.918-0.933c0.934,0.933,1.852,0.933,2.777,0.933
		c3.695,1.845,7.399-0.933,9.25-4.628c2.769-5.548,0.925-9.25-2.771-11.101c-3.702-2.771-6.479-1.853-12.952,0l-3.696,1.851
		c-8.323,2.777-12.025,2.777-15.729,0c-6.473-2.771-8.323-10.176-3.694-16.648c0.924-2.769,1.844-3.695,2.777-5.546
		c0.917-0.927,0.917-0.927,1.851-1.844c0,0,0,0,0.918,0c0,0,1.853,0.917,5.555,3.694c0.918,0,0.918,0,0.918,0
		c0,0.927,0.933,0.927,0,0.927c0,0.918,0,0.918,0,0.918c-0.918,0-0.918,0-0.918,0c-0.934-0.918-2.777-0.918-2.777-0.918
		c-0.925,0-3.695,0-6.479,4.62c-2.771,3.703-1.844,8.325,1.851,10.176c3.704,1.851,5.555,1.851,12.954-1.851l1.844-0.927
		c9.257-3.695,13.878-2.777,18.5-0.925c1.851,1.852,5.553,4.62,6.472,10.175c0,3.703-0.919,7.398-2.771,10.176
		C670.976,565.998,669.124,567.851,666.347,569.702z"/>
</g>
</svg>
